<svg version="1.1" id="Layer_1" xmlns="http://www.w3.org/2000/svg" xmlns:xlink="http://www.w3.org/1999/xlink" x="0px" y="0px"
	 width="100%" viewBox="0 0 318 236" enable-background="new 0 0 318 236" xml:space="preserve">
<path fill="#FEFEFE" opacity="1.000000" stroke="none" 
	d="
M1.000000,236.000000 
	C1.000000,157.710159 1.000000,79.420319 1.000000,1.065238 
	C106.897621,1.065238 212.795288,1.065238 319.000000,1.065238 
	C319.000000,79.020622 319.000000,157.041656 318.531372,235.535309 
	C283.039734,236.061508 248.016769,236.115097 212.529877,236.101608 
	C174.709167,236.079117 137.352386,236.123688 99.531548,236.100571 
	C66.378319,236.021927 33.689159,236.010956 1.000000,236.000000 
M61.164997,140.244308 
	C59.450714,140.052170 57.736435,139.860046 55.864319,139.029282 
	C54.876698,138.518295 53.926579,137.736328 52.888130,137.592621 
	C52.208160,137.498520 51.400322,138.328400 50.649746,138.744431 
	C51.089664,139.499039 51.529587,140.253632 52.648602,141.221100 
	C64.786629,146.204025 76.191734,144.059174 84.147873,135.297318 
	C91.788704,126.882706 93.020851,115.416786 87.701759,104.106812 
	C91.712822,98.171227 95.723877,92.235641 100.357864,85.378258 
	C94.747841,85.378258 90.153336,85.676895 85.617966,85.287201 
	C81.735847,84.953651 78.959251,86.018326 76.461021,89.024696 
	C60.718887,80.540390 42.858562,84.039978 32.662716,97.606636 
	C22.546114,111.067856 23.821218,129.118896 35.684170,141.383682 
	C43.649643,149.618958 61.313148,154.701370 70.649231,148.074585 
	C68.380806,148.074585 66.659744,148.045120 64.939941,148.079102 
	C45.663452,148.459961 30.953432,131.546402 34.458229,112.852257 
	C37.478416,96.742973 52.236759,86.786430 68.663788,89.076622 
	C70.447876,89.325348 73.642609,89.323692 72.787727,93.283241 
	C72.090767,93.604866 71.393806,93.926483 70.954185,94.129349 
	C71.821053,95.817291 73.585602,97.716522 73.171906,98.691208 
	C69.916267,106.361580 66.244225,113.855209 62.142570,122.591423 
	C59.615643,116.675201 57.828350,112.080368 55.665676,107.669586 
	C54.989773,106.291069 53.396797,104.613861 52.057526,104.452576 
	C48.383064,104.010086 44.620403,104.299957 39.882660,104.299957 
	C47.673695,116.098587 54.865520,126.989777 62.005722,138.593735 
	C62.005375,139.070175 62.005024,139.546600 61.164997,140.244308 
M251.517715,126.207352 
	C251.517715,117.925262 251.517715,109.643173 251.517715,101.463234 
	C248.169540,99.918503 246.714783,100.927193 245.794342,104.073593 
	C244.220657,109.452988 242.227509,114.709663 239.936691,121.402069 
	C238.962067,119.000214 238.435532,117.919281 238.078781,116.784935 
	C236.734100,112.509125 235.406021,108.227242 234.147858,103.925369 
	C233.288208,100.986107 231.718979,99.758011 228.306946,101.448799 
	C228.306946,109.296616 228.238373,117.247452 228.397446,125.193726 
	C228.416412,126.141106 229.676163,127.063644 230.360779,127.997711 
	C230.951279,126.996780 231.984604,126.024246 232.050964,124.989693 
	C232.267792,121.608925 232.132278,118.205551 232.132278,114.810875 
	C232.641785,114.717270 233.151276,114.623672 233.660782,114.530075 
	C234.825928,117.678314 235.847168,120.891136 237.218384,123.946915 
	C237.880737,125.422981 239.201096,126.603783 240.223557,127.918282 
	C240.898056,126.553566 241.678955,125.230049 242.226410,123.816139 
	C243.673203,120.079544 245.018875,116.303795 246.404785,112.543633 
	C246.798874,112.637505 247.192963,112.731384 247.587051,112.825256 
	C247.770172,114.233231 247.953308,115.641205 247.848038,117.766075 
	C247.822601,120.371025 247.668732,122.983009 247.810699,125.578796 
	C247.933075,127.815918 248.806458,129.090408 251.517715,126.207352 
M125.195801,114.104752 
	C127.538528,110.539169 127.855545,106.698433 125.137711,103.460388 
	C121.319443,98.911301 116.059120,101.126587 110.949791,100.739899 
	C110.949791,109.349815 110.900993,117.306641 111.016869,125.261063 
	C111.030067,126.167557 111.966705,127.060593 112.475159,127.959869 
	C113.210281,127.091805 114.473213,126.283394 114.579369,125.344231 
	C114.871994,122.755432 114.680519,120.111908 114.680519,117.490028 
	C115.120026,117.113388 115.559540,116.736755 115.999046,116.360123 
	C117.455124,117.531120 119.228714,118.472549 120.284561,119.932915 
	C121.523163,121.646049 121.926193,123.950104 123.100525,125.727745 
	C123.830719,126.833069 125.318871,127.437675 126.466835,128.267014 
	C126.866295,127.860382 127.265755,127.453758 127.665215,127.047142 
	C126.523247,124.534111 125.122787,122.098030 124.342712,119.477287 
	C123.919724,118.056206 124.553566,116.320541 125.195801,114.104752 
M160.299606,107.984131 
	C157.906097,107.810585 155.512589,107.637032 152.871841,107.445549 
	C152.808853,106.563766 152.893814,105.379982 152.607651,104.293999 
	C152.158722,102.590302 151.459305,100.952621 150.865952,99.286980 
	C150.205200,101.053680 149.091248,102.790916 148.974106,104.592949 
	C148.694092,108.900307 148.883652,113.238182 148.883652,117.563736 
	C148.883636,120.943123 148.883652,124.322510 148.883652,127.286278 
	C151.976990,127.678154 154.145447,128.528534 155.953491,128.041351 
	C158.408981,127.379692 161.908875,126.210876 162.636078,124.350746 
	C164.712509,119.039284 165.214355,113.317429 160.299606,107.984131 
M207.957077,110.387779 
	C208.899963,111.558846 209.842850,112.729912 210.785736,113.900978 
	C209.581497,114.491959 208.435287,115.347313 207.162643,115.626656 
	C202.463562,116.658112 200.048431,119.495613 200.808014,123.532448 
	C201.432663,126.852089 203.628082,128.360641 206.890640,128.135422 
	C209.375259,127.963921 211.838470,127.482147 214.464066,127.117149 
	C214.464066,122.843811 214.410202,118.545509 214.481079,114.249252 
	C214.537918,110.802956 213.141495,108.118027 209.683304,107.812317 
	C206.035721,107.489868 202.117645,107.791588 200.422440,114.074242 
	C203.361710,112.431702 205.207962,111.399963 207.957077,110.387779 
M257.485931,113.214485 
	C258.630249,112.599548 259.713989,111.758987 260.935394,111.431282 
	C262.232758,111.083214 263.770081,110.882271 264.990082,111.275879 
	C265.711548,111.508659 266.655365,113.527069 266.393219,113.853035 
	C265.706390,114.707054 264.440948,115.137199 263.353821,115.618118 
	C261.725220,116.338570 259.244537,116.511665 258.576843,117.719482 
	C257.423279,119.806099 256.447266,122.849258 257.173401,124.844582 
	C257.752716,126.436478 260.883240,127.592583 263.051880,127.975197 
	C265.229736,128.359451 267.618622,127.547531 270.153534,127.229942 
	C270.153534,122.742844 270.152985,118.148224 270.153687,113.553596 
	C270.154236,109.939095 268.049774,108.070206 264.738007,107.922928 
	C261.229736,107.766899 257.274750,107.521217 257.485931,113.214485 
M190.125854,117.774269 
	C189.427689,115.218124 188.922867,112.584564 187.944336,110.140671 
	C187.499512,109.029762 186.117020,108.294289 185.159851,107.388512 
	C184.701416,107.769424 184.242966,108.150337 183.784531,108.531258 
	C185.037308,112.623344 186.269836,116.721779 187.547989,120.805931 
	C189.144958,125.908745 191.589340,131.174347 183.908432,134.029190 
	C188.102631,136.351059 190.069458,135.621643 191.510208,131.034729 
	C193.789398,123.778465 195.668564,116.395966 197.650894,109.049049 
	C197.732361,108.747086 197.141876,108.263809 196.233917,106.958633 
	C195.167328,108.697685 194.230133,109.951080 193.584320,111.339966 
	C192.479660,113.715675 191.557465,116.176231 190.125854,117.774269 
M143.851059,127.451271 
	C143.634384,122.253220 143.662003,117.030083 143.131454,111.864265 
	C142.613480,106.820549 138.230316,107.691124 135.130035,107.896019 
	C132.600769,108.063171 130.541565,109.932205 131.361420,113.628403 
	C134.903946,112.201775 138.823059,106.783928 141.123337,114.895729 
	C139.019485,115.290817 137.060425,115.457817 135.235184,116.042534 
	C131.205429,117.333458 129.828903,120.411789 130.862335,124.265381 
	C131.887527,128.088165 134.809540,128.624359 138.359665,127.779297 
	C139.840515,127.426804 141.477249,127.729103 143.851059,127.451271 
M180.506577,126.474640 
	C180.751999,123.546867 180.751999,123.546867 177.934204,124.407845 
	C173.042679,125.902458 171.245804,124.462120 171.663727,118.885048 
	C174.896881,118.885048 178.168015,118.885048 183.141846,118.885048 
	C181.483521,114.746002 180.898849,110.944809 178.714325,108.701744 
	C177.377441,107.329063 173.229691,107.514381 170.972717,108.475555 
	C166.918884,110.201973 165.675613,119.412201 168.234161,124.443237 
	C170.211151,128.330765 174.431320,129.212372 180.506577,126.474640 
M292.090027,104.212738 
	C290.953125,103.700378 289.816254,103.188019 288.888763,102.770027 
	C287.685852,105.601379 285.413971,109.146103 286.042236,109.769882 
	C289.482513,113.185684 287.036285,117.243156 288.084900,120.723793 
	C288.867767,123.322540 290.473145,125.702278 291.948578,128.029739 
	C292.148804,128.345566 293.725891,127.788551 294.665436,127.635681 
	C294.514557,126.779266 294.638214,125.712082 294.168610,125.100380 
	C290.940521,120.895432 291.268463,112.859772 294.922668,109.107361 
	C293.995483,107.747559 293.071533,106.392487 292.090027,104.212738 
M277.298096,127.933479 
	C277.760254,124.326271 278.183411,120.713440 278.701385,117.114273 
	C278.952484,115.369438 279.037628,113.468422 279.829071,111.971878 
	C280.579498,110.552834 282.154236,109.569702 283.366486,108.394875 
	C281.575439,108.185158 279.788239,107.926468 277.991791,107.786224 
	C277.082275,107.715218 276.156097,107.858162 274.848877,107.923927 
	C274.848877,114.012459 274.776672,119.773956 274.927948,125.529579 
	C274.950256,126.378143 276.031372,127.198868 277.298096,127.933479 
z"/>
<path fill="#2B72A8" opacity="1.000000" stroke="none" 
	d="
M99.995613,236.168259 
	C137.352386,236.123688 174.709167,236.079117 212.531799,236.309448 
	C212.997650,236.584351 213.000000,237.000000 213.000000,237.000000 
	C175.645767,237.000000 138.291550,237.000000 100.467819,236.792068 
	C99.998329,236.584137 99.995613,236.168259 99.995613,236.168259 
z"/>
<path fill="#3176AB" opacity="1.000000" stroke="none" 
	d="
M213.468658,237.000000 
	C213.000000,237.000000 212.997650,236.584351 212.995728,236.376526 
	C248.016769,236.115097 283.039734,236.061508 318.531372,236.003967 
	C317.673523,236.333344 316.347473,236.955643 315.020477,236.957764 
	C281.326172,237.011383 247.631729,237.000000 213.468658,237.000000 
z"/>
<path fill="#256EA6" opacity="1.000000" stroke="none" 
	d="
M99.531548,236.100571 
	C99.995613,236.168259 99.998329,236.584137 99.999161,236.792068 
	C67.000000,237.000000 34.000000,237.000000 1.000000,236.500000 
	C33.689159,236.010956 66.378319,236.021927 99.531548,236.100571 
z"/>
<path fill="#F06127" opacity="1.000000" stroke="none" 
	d="
M77.095345,89.418526 
	C78.959251,86.018326 81.735847,84.953651 85.617966,85.287201 
	C90.153336,85.676895 94.747841,85.378258 100.357864,85.378258 
	C95.723877,92.235641 91.712822,98.171227 87.325684,104.621918 
	C85.894089,106.884918 84.838562,108.632820 83.457100,110.524284 
	C77.411072,118.605194 71.735825,126.575623 65.927956,134.448212 
	C64.926598,135.805557 63.361847,136.747269 62.057343,137.880966 
	C54.865520,126.989777 47.673695,116.098587 39.882660,104.299957 
	C44.620403,104.299957 48.383064,104.010086 52.057526,104.452576 
	C53.396797,104.613861 54.989773,106.291069 55.665676,107.669586 
	C57.828350,112.080368 59.615643,116.675201 62.142570,122.591423 
	C66.244225,113.855209 69.916267,106.361580 73.171906,98.691208 
	C73.585602,97.716522 71.821053,95.817291 70.954185,94.129349 
	C71.393806,93.926483 72.090767,93.604866 73.342651,92.950989 
	C74.963501,91.552002 76.029419,90.485260 77.095345,89.418526 
z"/>
<path fill="#F89E2C" opacity="1.000000" stroke="none" 
	d="
M76.778183,89.221611 
	C76.029419,90.485260 74.963501,91.552002 73.602844,92.734871 
	C73.642609,89.323692 70.447876,89.325348 68.663788,89.076622 
	C52.236759,86.786430 37.478416,96.742973 34.458229,112.852257 
	C30.953432,131.546402 45.663452,148.459961 64.939941,148.079102 
	C66.659744,148.045120 68.380806,148.074585 70.649231,148.074585 
	C61.313148,154.701370 43.649643,149.618958 35.684170,141.383682 
	C23.821218,129.118896 22.546114,111.067856 32.662716,97.606636 
	C42.858562,84.039978 60.718887,80.540390 76.778183,89.221611 
z"/>
<path fill="#2E5068" opacity="1.000000" stroke="none" 
	d="
M248.136444,117.049171 
	C247.953308,115.641205 247.770172,114.233231 247.587051,112.825256 
	C247.192963,112.731384 246.798874,112.637505 246.404785,112.543633 
	C245.018875,116.303795 243.673203,120.079544 242.226410,123.816139 
	C241.678955,125.230049 240.898056,126.553566 240.223541,127.918274 
	C239.201096,126.603783 237.880737,125.422981 237.218384,123.946915 
	C235.847168,120.891136 234.825928,117.678314 233.660782,114.530075 
	C233.151276,114.623672 232.641785,114.717270 232.132278,114.810875 
	C232.132278,118.205551 232.267792,121.608925 232.050964,124.989693 
	C231.984604,126.024246 230.951279,126.996780 230.360779,127.997711 
	C229.676163,127.063644 228.416412,126.141106 228.397446,125.193726 
	C228.238373,117.247452 228.306946,109.296616 228.306946,101.448799 
	C231.718979,99.758011 233.288208,100.986107 234.147858,103.925369 
	C235.406021,108.227242 236.734100,112.509125 238.078781,116.784935 
	C238.435532,117.919281 238.962067,119.000214 239.936691,121.402069 
	C242.227509,114.709663 244.220657,109.452988 245.794342,104.073593 
	C246.714783,100.927193 248.169540,99.918503 251.517715,101.463234 
	C251.517715,109.643173 251.517715,117.925262 250.876587,126.518967 
	C249.535782,123.570107 248.836121,120.309639 248.136444,117.049171 
M247.419113,109.705254 
	C247.694397,109.994598 247.969666,110.283943 248.244949,110.573288 
	C248.364487,110.458519 248.594635,110.250786 248.587585,110.242409 
	C248.330597,109.936691 248.051590,109.649475 247.419113,109.705254 
z"/>
<path fill="#1D405A" opacity="1.000000" stroke="none" 
	d="
M83.783035,110.380722 
	C84.838562,108.632820 85.894089,106.884918 87.189468,104.949188 
	C93.020851,115.416786 91.788704,126.882706 84.147873,135.297318 
	C76.191734,144.059174 64.786629,146.204025 52.416519,140.735901 
	C53.463676,140.056442 54.742912,139.862167 56.022152,139.667908 
	C57.736435,139.860046 59.450714,140.052170 61.988834,140.230103 
	C78.295860,138.721603 86.959686,126.395309 83.783035,110.380722 
z"/>
<path fill="#294C64" opacity="1.000000" stroke="none" 
	d="
M124.953247,114.415771 
	C124.553566,116.320541 123.919724,118.056206 124.342712,119.477287 
	C125.122787,122.098030 126.523247,124.534111 127.665215,127.047142 
	C127.265755,127.453758 126.866295,127.860382 126.466835,128.267014 
	C125.318871,127.437675 123.830719,126.833069 123.100525,125.727745 
	C121.926193,123.950104 121.523163,121.646049 120.284561,119.932915 
	C119.228714,118.472549 117.455124,117.531120 115.999046,116.360123 
	C115.559540,116.736755 115.120026,117.113388 114.680519,117.490028 
	C114.680519,120.111908 114.871994,122.755432 114.579369,125.344231 
	C114.473213,126.283394 113.210281,127.091805 112.475159,127.959869 
	C111.966705,127.060593 111.030067,126.167557 111.016869,125.261063 
	C110.900993,117.306641 110.949791,109.349815 110.949791,100.739899 
	C116.059120,101.126587 121.319443,98.911301 125.137711,103.460388 
	C127.855545,106.698433 127.538528,110.539169 124.953247,114.415771 
M116.391571,113.826271 
	C120.463737,114.053329 123.594780,112.909798 123.022804,108.083679 
	C122.403549,102.858673 118.498329,104.063293 114.279518,104.075142 
	C114.738663,107.616325 115.130295,110.636818 116.391571,113.826271 
z"/>
<path fill="#31526A" opacity="1.000000" stroke="none" 
	d="
M160.608124,108.203659 
	C165.214355,113.317429 164.712509,119.039284 162.636078,124.350746 
	C161.908875,126.210876 158.408981,127.379692 155.953491,128.041351 
	C154.145447,128.528534 151.976990,127.678154 148.883652,127.286278 
	C148.883652,124.322510 148.883636,120.943123 148.883652,117.563736 
	C148.883652,113.238182 148.694092,108.900307 148.974106,104.592949 
	C149.091248,102.790916 150.205200,101.053680 150.865967,99.286987 
	C151.459305,100.952621 152.158722,102.590302 152.607651,104.293999 
	C152.893814,105.379982 152.808853,106.563766 152.871841,107.445549 
	C155.512589,107.637032 157.906097,107.810585 160.608124,108.203659 
M159.951889,113.924019 
	C158.425156,112.835289 156.898422,111.746559 155.371689,110.657829 
	C154.442429,112.194450 153.146240,113.629852 152.686630,115.296036 
	C152.222778,116.977486 152.115005,119.070160 152.721878,120.647751 
	C153.354904,122.293320 155.027054,123.539154 156.244888,124.959747 
	C157.514954,123.548843 159.303802,122.328873 159.912643,120.674622 
	C160.552017,118.937424 160.060928,116.784149 159.951889,113.924019 
z"/>
<path fill="#F3F0EF" opacity="1.000000" stroke="none" 
	d="
M83.457100,110.524284 
	C86.959686,126.395309 78.295860,138.721603 62.408672,140.119461 
	C62.005024,139.546600 62.005375,139.070175 62.031532,138.237350 
	C63.361847,136.747269 64.926598,135.805557 65.927956,134.448212 
	C71.735825,126.575623 77.411072,118.605194 83.457100,110.524284 
z"/>
<path fill="#20435D" opacity="1.000000" stroke="none" 
	d="
M207.505646,110.378006 
	C205.207962,111.399963 203.361710,112.431702 200.422440,114.074242 
	C202.117645,107.791588 206.035721,107.489868 209.683304,107.812317 
	C213.141495,108.118027 214.537918,110.802956 214.481079,114.249252 
	C214.410202,118.545509 214.464066,122.843811 214.464066,127.117149 
	C211.838470,127.482147 209.375259,127.963921 206.890640,128.135422 
	C203.628082,128.360641 201.432663,126.852089 200.808014,123.532448 
	C200.048431,119.495613 202.463562,116.658112 207.162643,115.626656 
	C208.435287,115.347313 209.581497,114.491959 210.785736,113.900978 
	C209.842850,112.729912 208.899963,111.558846 207.505646,110.378006 
M210.922592,122.087440 
	C210.864029,120.831108 210.805450,119.574776 210.673706,116.748566 
	C207.946762,118.530540 205.932892,119.541084 204.398148,121.041672 
	C203.956650,121.473343 204.896698,123.318016 205.203323,124.514839 
	C207.037918,123.968102 208.872513,123.421371 210.922592,122.087440 
z"/>
<path fill="#20445D" opacity="1.000000" stroke="none" 
	d="
M257.240295,112.997986 
	C257.274750,107.521217 261.229736,107.766899 264.738007,107.922928 
	C268.049774,108.070206 270.154236,109.939095 270.153687,113.553596 
	C270.152985,118.148224 270.153534,122.742844 270.153534,127.229942 
	C267.618622,127.547531 265.229736,128.359451 263.051880,127.975197 
	C260.883240,127.592583 257.752716,126.436478 257.173401,124.844582 
	C256.447266,122.849258 257.423279,119.806099 258.576843,117.719482 
	C259.244537,116.511665 261.725220,116.338570 263.353821,115.618118 
	C264.440948,115.137199 265.706390,114.707054 266.393219,113.853035 
	C266.655365,113.527069 265.711548,111.508659 264.990082,111.275879 
	C263.770081,110.882271 262.232758,111.083214 260.935394,111.431282 
	C259.713989,111.758987 258.630249,112.599548 257.240295,112.997986 
M266.129120,118.276329 
	C265.644958,118.205826 265.154633,118.046333 264.677673,118.079514 
	C261.938843,118.270103 259.634216,119.228615 260.095337,122.450516 
	C260.232941,123.411911 261.924072,124.831665 262.937714,124.861122 
	C266.161499,124.954819 266.976410,122.668800 266.787140,119.854279 
	C266.765198,119.528000 266.701263,119.204552 266.129120,118.276329 
z"/>
<path fill="#23465F" opacity="1.000000" stroke="none" 
	d="
M190.342255,118.187714 
	C191.557465,116.176231 192.479660,113.715675 193.584320,111.339966 
	C194.230133,109.951080 195.167328,108.697685 196.233917,106.958633 
	C197.141876,108.263809 197.732361,108.747086 197.650894,109.049049 
	C195.668564,116.395966 193.789398,123.778465 191.510208,131.034729 
	C190.069458,135.621643 188.102631,136.351059 183.908432,134.029190 
	C191.589340,131.174347 189.144958,125.908745 187.547989,120.805931 
	C186.269836,116.721779 185.037308,112.623344 183.784531,108.531258 
	C184.242966,108.150337 184.701416,107.769424 185.159851,107.388512 
	C186.117020,108.294289 187.499512,109.029762 187.944336,110.140671 
	C188.922867,112.584564 189.427689,115.218124 190.342255,118.187714 
z"/>
<path fill="#1B405A" opacity="1.000000" stroke="none" 
	d="
M143.447083,127.592468 
	C141.477249,127.729103 139.840515,127.426804 138.359665,127.779297 
	C134.809540,128.624359 131.887527,128.088165 130.862335,124.265381 
	C129.828903,120.411789 131.205429,117.333458 135.235184,116.042534 
	C137.060425,115.457817 139.019485,115.290817 141.123337,114.895729 
	C138.823059,106.783928 134.903946,112.201775 131.361420,113.628403 
	C130.541565,109.932205 132.600769,108.063171 135.130035,107.896019 
	C138.230316,107.691124 142.613480,106.820549 143.131454,111.864265 
	C143.662003,117.030083 143.634384,122.253220 143.447083,127.592468 
M133.953369,121.658218 
	C133.868011,124.610207 135.856018,125.945366 137.971817,124.680122 
	C139.655045,123.673561 140.332458,120.985031 141.456406,119.043221 
	C140.833420,118.468552 140.210434,117.893890 139.587448,117.319221 
	C137.757462,118.499191 135.927475,119.679161 133.953369,121.658218 
z"/>
<path fill="#2E4F67" opacity="1.000000" stroke="none" 
	d="
M180.254150,126.688065 
	C174.431320,129.212372 170.211151,128.330765 168.234161,124.443237 
	C165.675613,119.412201 166.918884,110.201973 170.972717,108.475555 
	C173.229691,107.514381 177.377441,107.329063 178.714325,108.701744 
	C180.898849,110.944809 181.483521,114.746002 183.141846,118.885048 
	C178.168015,118.885048 174.896881,118.885048 171.663727,118.885048 
	C171.245804,124.462120 173.042679,125.902458 177.934204,124.407845 
	C180.751999,123.546867 180.751999,123.546867 180.254150,126.688065 
M173.800995,110.361359 
	C172.682953,111.822845 171.564911,113.284332 169.878128,115.489288 
	C173.597046,115.489288 175.795700,115.489288 177.994354,115.489288 
	C178.292236,115.067513 178.590118,114.645737 178.888000,114.223961 
	C177.448257,112.889389 176.008514,111.554817 173.800995,110.361359 
z"/>
<path fill="#234760" opacity="1.000000" stroke="none" 
	d="
M292.118805,104.625076 
	C293.071533,106.392487 293.995483,107.747559 294.922668,109.107361 
	C291.268463,112.859772 290.940521,120.895432 294.168610,125.100380 
	C294.638214,125.712082 294.514557,126.779266 294.665436,127.635681 
	C293.725891,127.788551 292.148804,128.345566 291.948578,128.029739 
	C290.473145,125.702278 288.867767,123.322540 288.084900,120.723793 
	C287.036285,117.243156 289.482513,113.185684 286.042236,109.769882 
	C285.413971,109.146103 287.685852,105.601379 288.888763,102.770027 
	C289.816254,103.188019 290.953125,103.700378 292.118805,104.625076 
z"/>
<path fill="#395970" opacity="1.000000" stroke="none" 
	d="
M276.960358,127.982986 
	C276.031372,127.198868 274.950256,126.378143 274.927948,125.529579 
	C274.776672,119.773956 274.848877,114.012459 274.848877,107.923927 
	C276.156097,107.858162 277.082275,107.715218 277.991791,107.786224 
	C279.788239,107.926468 281.575439,108.185158 283.366486,108.394875 
	C282.154236,109.569702 280.579498,110.552834 279.829071,111.971878 
	C279.037628,113.468422 278.952484,115.369438 278.701385,117.114273 
	C278.183411,120.713440 277.760254,124.326271 276.960358,127.982986 
z"/>
<path fill="#31526A" opacity="1.000000" stroke="none" 
	d="
M247.992249,117.407623 
	C248.836121,120.309639 249.535782,123.570107 250.622467,126.915565 
	C248.806458,129.090408 247.933075,127.815918 247.810699,125.578796 
	C247.668732,122.983009 247.822601,120.371025 247.992249,117.407623 
z"/>
<path fill="#F3F0EF" opacity="1.000000" stroke="none" 
	d="
M55.943237,139.348602 
	C54.742912,139.862167 53.463676,140.056442 52.076973,140.629486 
	C51.529587,140.253632 51.089664,139.499039 50.649750,138.744431 
	C51.400322,138.328400 52.208160,137.498520 52.888130,137.592621 
	C53.926579,137.736328 54.876698,138.518295 55.943237,139.348602 
z"/>
<path fill="#31526A" opacity="1.000000" stroke="none" 
	d="
M247.597351,109.532486 
	C248.051590,109.649475 248.330597,109.936691 248.587585,110.242409 
	C248.594635,110.250786 248.364487,110.458519 248.244949,110.573288 
	C247.969666,110.283943 247.694397,109.994598 247.597351,109.532486 
z"/>
<path fill="#EFF1F3" opacity="1.000000" stroke="none" 
	d="
M115.956757,113.741791 
	C115.130295,110.636818 114.738663,107.616325 114.279518,104.075142 
	C118.498329,104.063293 122.403549,102.858673 123.022804,108.083679 
	C123.594780,112.909798 120.463737,114.053329 115.956757,113.741791 
z"/>
<path fill="#EBEEF0" opacity="1.000000" stroke="none" 
	d="
M160.007874,114.368362 
	C160.060928,116.784149 160.552017,118.937424 159.912643,120.674622 
	C159.303802,122.328873 157.514954,123.548843 156.244888,124.959747 
	C155.027054,123.539154 153.354904,122.293320 152.721878,120.647751 
	C152.115005,119.070160 152.222778,116.977486 152.686630,115.296036 
	C153.146240,113.629852 154.442429,112.194450 155.371689,110.657829 
	C156.898422,111.746559 158.425156,112.835289 160.007874,114.368362 
z"/>
<path fill="#E2E7EA" opacity="1.000000" stroke="none" 
	d="
M210.814850,122.481041 
	C208.872513,123.421371 207.037918,123.968102 205.203308,124.514839 
	C204.896698,123.318016 203.956650,121.473343 204.398148,121.041672 
	C205.932892,119.541084 207.946762,118.530540 210.673706,116.748566 
	C210.805450,119.574776 210.864029,120.831108 210.814850,122.481041 
z"/>
<path fill="#DDE3E7" opacity="1.000000" stroke="none" 
	d="
M266.392944,118.578064 
	C266.701263,119.204552 266.765198,119.528000 266.787140,119.854279 
	C266.976410,122.668800 266.161499,124.954819 262.937714,124.861122 
	C261.924072,124.831665 260.232941,123.411911 260.095337,122.450516 
	C259.634216,119.228615 261.938843,118.270103 264.677673,118.079514 
	C265.154633,118.046333 265.644958,118.205826 266.392944,118.578064 
z"/>
<path fill="#DCE2E6" opacity="1.000000" stroke="none" 
	d="
M134.025421,121.258675 
	C135.927475,119.679161 137.757462,118.499191 139.587448,117.319221 
	C140.210434,117.893890 140.833420,118.468552 141.456406,119.043221 
	C140.332458,120.985031 139.655045,123.673561 137.971817,124.680122 
	C135.856018,125.945366 133.868011,124.610207 134.025421,121.258675 
z"/>
<path fill="#D9DFE3" opacity="1.000000" stroke="none" 
	d="
M174.184891,110.290802 
	C176.008514,111.554817 177.448257,112.889389 178.888000,114.223961 
	C178.590118,114.645737 178.292236,115.067513 177.994354,115.489288 
	C175.795700,115.489288 173.597046,115.489288 169.878128,115.489288 
	C171.564911,113.284332 172.682953,111.822845 174.184891,110.290802 
z"/>
</svg>